<?xml version="1.0" encoding="UTF-8"?>
<svg width="153px" height="155px" viewBox="0 0 153 155" version="1.1" xmlns="http://www.w3.org/2000/svg" xmlns:xlink="http://www.w3.org/1999/xlink">
    <title>Group 2</title>
    <defs>
        <rect id="path-1" x="0" y="0" width="153" height="155" rx="35"></rect>
    </defs>
    <g id="Page-1" stroke="none" stroke-width="1" fill="none" fill-rule="evenodd">
        <g id="Group-2">
            <mask id="mask-2" fill="white">
                <use xlink:href="#path-1"></use>
            </mask>
            <g id="Rectangle"></g>
            <g id="icon" mask="url(#mask-2)">
                <g transform="translate(-8.000000, -6.000000)" id="Group">
                    <g>
                        <g id="p0-link" fill="#000000" fill-rule="nonzero" stroke="#EFF4F7">
                            <path d="M0,0 L174,0 L174,171 L0,171 L0,0 Z M121.961571,160.945949 C128.088857,161.151898 134.595214,161.38281 140.728714,160.122153 C145.209214,159.011277 149.8575,157.10781 153.374786,154.031058 C158.103857,149.943285 161.925643,144.963066 163.7775,138.909416 C165.666643,133.049234 165.057643,126.577445 165.113571,120.448905 C165.132214,107.137117 165.0825,93.8253285 165.126,80.5135401 C165.399429,73.0057664 164.970643,65.5104745 165.200571,58.0027007 C165.337286,53.4343796 165.026571,48.8785401 165.094929,44.310219 C165.113571,38.9555474 165.529929,33.9566058 163.870714,28.7641971 C162.012643,23.3658394 159.464786,18.3793796 155.0775,14.6161314 C149.099357,9.0430292 141.132643,5.95974279 132.985714,5.97875912 C102.343071,5.95974279 71.6569286,6.02868613 41.0142857,5.95974279 C35.4835714,5.94131387 29.7975,6.8150365 24.8260714,9.34883212 C18.2202857,12.8312409 12.9505714,18.6851825 9.93042857,25.5064599 C7.98535714,30.4055474 7.40121429,35.9536861 7.2645,41.189781 C7.18371429,67.6136496 7.2645,94.0312774 7.20818958,120.448905 C7.19614286,124.998504 7.48821429,129.53562 7.92321429,134.066496 C8.35821429,138.666022 9.75642857,143.446533 12.3788571,147.278431 C17.1017143,153.856314 23.5707857,158.96135 31.6120714,160.621423 C36.6456429,161.775985 41.1634286,160.67135 46.1845714,161.008358 C53.1756429,161.376569 60.117,161.30792 67.1142857,161.301679 C81.6122143,161.314161 96.1163571,161.270474 110.614286,161.326642 C114.411214,161.395292 118.177071,161.039562 121.961571,160.945949 Z" id="p0"></path>
                        </g>
                        <g id="p1-link" transform="translate(7.207830, 5.959458)" fill="#000000" fill-rule="nonzero" stroke="#A9D9E9">
                            <path d="M33.8064553,0.00028467025 C64.4490982,0.0692280121 95.135241,0.00028467025 125.777884,0.0193010048 C133.924812,0.00028467025 141.891527,3.08357108 147.86967,8.65667327 C152.256955,12.4199214 154.804812,17.4063813 156.662884,22.804739 C158.322098,27.9971477 157.905741,32.9960893 157.887098,38.3507609 C157.818741,42.919082 158.129455,47.4749214 157.992741,52.0432426 C157.762812,59.5510163 158.191598,67.0463083 157.91817,74.554082 C157.87467,87.8658703 157.924384,101.177659 157.905741,114.489447 C157.849812,120.617987 158.458812,127.089775 156.56967,132.949958 C154.717812,139.003608 150.896027,143.983827 146.166955,148.0716 C142.64967,151.148352 138.001384,153.051819 133.520884,154.162695 C127.387384,155.423352 120.881027,155.19244 114.753741,154.986491 C110.969241,155.080104 107.203384,155.435834 103.406455,155.367184 C88.9085267,155.311016 74.4043839,155.354702 59.9064553,155.342221 C52.9091696,155.348462 45.9678124,155.417111 38.976741,155.0489 C33.9555982,154.711892 29.4378124,155.816527 24.404241,154.661965 C16.3629553,153.001892 9.89388387,147.896856 5.17102672,141.318973 C2.54859815,137.487075 1.15038387,132.706564 0.715383866,128.107038 C0.280383866,123.576162 -0.0116875622,119.039046 0.000359158101,114.489447 C0.0566695806,88.0718193 -0.0241161337,61.6541915 0.0566695806,35.2303229 C0.193383866,29.994228 0.777526723,24.4460893 2.72259815,19.5470017 C5.74274101,12.7257244 11.0124553,6.87178276 17.618241,3.389374 C22.5896696,0.855578377 28.275741,-0.0181442507 33.8064553,0.00028467025 Z M111.298598,112.511089 C112.777598,110.975834 114.219312,109.546673 116.170598,108.616783 C121.29117,106.257732 126.417955,106.251491 131.64417,104.803608 C134.241741,104.03598 136.665312,102.744119 137.38617,99.9107609 C137.901955,97.8387901 136.193027,96.078863 134.726455,94.8868557 C131.234027,92.0534981 126.710027,91.454374 123.155455,89.0329141 C121.471384,87.93452 121.676455,85.7065273 121.539741,83.9466003 C121.496241,73.7365273 121.757241,63.5202134 121.732384,53.3101404 C121.651598,49.9213448 121.229027,46.6636076 118.805455,44.1110893 C116.41917,41.6397025 112.553884,40.3478412 109.41567,39.1121477 C102.207098,36.4410528 95.2533124,33.1833156 87.9390982,30.7743375 C84.2291696,29.6010528 80.1898839,27.4541915 76.2748839,27.429228 C73.0683124,27.7038266 69.8679553,29.2515638 66.8726696,30.3874032 C62.0006696,32.3532791 57.0913839,34.219301 52.244241,36.2475857 C47.2044553,38.34452 41.499741,39.8111258 36.8265982,42.6132791 C34.6329553,43.9113813 33.0731696,45.7898849 32.3895982,48.2799944 C31.146741,52.5549944 31.6376696,57.5913813 31.9235267,61.9974397 C32.5014553,68.6626952 31.9173124,75.309228 32.6133124,81.9682426 C32.7438124,83.8779506 32.9550982,86.5303229 31.8240982,88.1591915 C29.3943124,90.0314543 26.013741,90.5744105 23.3913124,92.2282426 C21.5208124,93.3578412 19.6751696,94.9991915 19.0413124,97.1710163 C18.6373839,99.149374 20.184741,100.672148 21.7569553,101.558352 C25.9018839,103.848754 31.4885267,103.411892 35.5526696,105.240469 C37.4045267,106.082987 39.237741,107.817951 39.1010267,110.02098 C38.7343839,113.509629 35.5340267,116.64879 34.9001696,120.062549 C35.7639553,122.721162 38.4671696,124.312586 41.2076696,124.019265 C45.632241,123.651053 49.8020267,122.440323 54.3198124,122.733644 C59.3285267,122.895907 62.901741,125.654374 67.7426696,126.503133 C72.2728839,127.26452 76.7720267,126.602987 81.0723124,125.073973 C85.2545267,123.663535 88.9458124,121.460505 93.4325267,121.379374 C100.137741,121.042367 107.364955,124.456126 113.840241,123.039447 C115.443527,122.677476 117.543955,121.185907 116.59317,119.301162 C115.362741,116.767367 113.063455,114.682914 111.298598,112.511089 Z M125.492027,113.565797 C123.957098,114.214848 123.341884,115.79379 124.106241,117.310323 C125.044598,119.21379 127.629741,119.482148 129.500241,119.482148 C130.898455,119.432221 132.762741,119.251235 133.452527,117.803352 C134.042884,116.523973 133.042384,115.200907 132.091598,114.427038 C130.301884,113.060286 127.573812,112.766965 125.492027,113.565797 Z" id="p1"></path>
                        </g>
                        <g id="p2-link" transform="translate(26.184112, 33.388686)" fill="#000000" fill-rule="nonzero" stroke="#EFF4F7">
                            <path d="M57.2986021,-7.10542736e-15 C61.2136021,0.0249635036 65.2528878,2.17182482 68.9628163,3.34510949 C76.2770306,5.75408759 83.2308163,9.01182482 90.4393878,11.6829197 C93.5776021,12.9186131 97.4428878,14.2104745 99.8291735,16.6818613 C102.252745,19.2343796 102.675316,22.4921168 102.756102,25.8809124 C102.780959,36.0909854 102.519959,46.3072993 102.563459,56.5173723 C102.700173,58.2772993 102.495102,60.505292 104.179173,61.6036861 C107.733745,64.025146 112.257745,64.6242701 115.750173,67.4576277 C117.216745,68.649635 118.925673,70.409562 118.409888,72.4815328 C117.689031,75.3148905 115.265459,76.6067518 112.667888,77.3743796 C107.441673,78.8222628 102.314888,78.8285036 97.1943163,81.1875547 C95.2430306,82.1174453 93.8013163,83.5466058 92.3223163,85.0818613 C94.0871735,87.2536861 96.3864592,89.3381387 97.6168878,91.8719343 C98.5676735,93.7566788 96.4672449,95.2482482 94.8639592,95.610219 C88.3886735,97.0268978 81.1614592,93.6131387 74.4562449,93.950146 C69.9695306,94.0312774 66.2782449,96.2343066 62.0960306,97.6447445 C57.7957449,99.1737591 53.2966021,99.835292 48.7663878,99.0739051 C43.9254592,98.225146 40.3522449,95.4666788 35.3435306,95.3044161 C30.8257449,95.0110949 26.6559592,96.2218248 22.2313878,96.5900365 C19.4908878,96.8833577 16.7876735,95.2919343 15.9238878,92.6333212 C16.5577449,89.219562 19.7581021,86.0804015 20.1247449,82.5917518 C20.2614592,80.3887226 18.4282449,78.6537591 16.5763878,77.8112409 C12.5122449,75.9826642 6.92560206,76.4195255 2.78067349,74.1291241 C1.20845921,73.2429197 -0.338897936,71.720146 0.0650306355,69.7417883 C0.698887778,67.5699635 2.54453064,65.9286131 4.41503064,64.7990146 C7.03745921,63.1451825 10.4180306,62.6022263 12.8478163,60.7299635 C13.9788163,59.1010949 13.7675306,56.4487226 13.6370306,54.5390146 C12.9410306,47.88 13.5251735,41.2334672 12.9472449,34.5682117 C12.6613878,30.1621533 12.1704592,25.1257664 13.4133163,20.8507664 C14.0968878,18.3606569 15.6566735,16.4821533 17.8503163,15.1840511 C22.5234592,12.3818978 28.2281735,10.915292 33.2679592,8.81835766 C38.1151021,6.79007299 43.0243878,4.92405109 47.8963878,2.95817518 C50.8916735,1.82233577 54.0920306,0.27459854 57.2986021,-7.10542736e-15 Z M24.1453878,19.3342336 C29.2970306,22.5170803 34.8277449,24.7887591 40.3895306,27.1041241 C46.0631735,29.4382117 51.0843163,32.2965328 57.3731735,32.5336861 C63.9665306,32.8582117 70.9141021,29.6441606 76.8176735,26.9668248 C82.1930306,24.4330292 87.5870306,22.9227372 92.1980306,18.9535401 C86.8848163,15.4960949 81.3168163,14.1106204 75.4629592,11.8139781 C70.5226021,10.010365 65.6195306,7.55145985 60.5051735,6.35321168 C56.6958163,5.48572993 53.4146735,6.6590146 49.9471021,8.08817518 C43.9316735,10.6344526 37.8354592,12.974781 31.7827449,15.4274453 C29.1106021,16.494635 26.5876021,17.8177007 24.1453878,19.3342336 Z M57.6403878,78.4790146 C55.8506735,75.5208394 55.6145306,72.3442336 55.6891021,68.9616788 C55.7139592,61.8345985 55.4778163,54.6326277 54.7196735,47.5492336 C54.2722449,43.7797445 52.4825306,40.2723723 49.3567449,38.0568613 C43.8881735,34.3185766 37.2078163,32.0905839 31.1986021,29.4132482 C28.0044592,28.0777007 24.7668163,26.3427372 21.3800306,25.5938321 C20.3733163,25.4877372 19.4411735,25.0508759 18.7700306,26.0806204 C17.4588163,28.0215328 17.7322449,31.1419708 17.7508878,33.394927 C18.3661021,42.5690146 18.2542449,51.6931752 18.4717449,60.8735036 C18.6519592,63.6943796 18.6581735,66.4653285 20.7772449,68.599708 C24.2323878,72.1632482 30.0178878,73.8108394 34.3865306,76.1199635 C40.0353163,79.0656569 45.8518878,81.6368978 51.5503878,84.4764964 C54.2038878,85.7309124 56.8263163,86.6608029 59.7905306,85.9181387 C63.8422449,84.844708 67.5397449,82.4419708 71.4609592,80.9191971 C78.6571021,78.0608759 85.4368878,74.3537956 92.0364592,70.3221898 C93.7826735,69.1863504 95.9638878,67.7259854 96.5604592,65.6040876 C97.4801735,62.3588321 97.1508163,58.5831022 97.2502449,55.2317518 C97.3993878,48.1608394 97.2440306,41.0836861 97.4863878,34.0127737 C97.5671735,31.0608394 97.3807449,28.1338686 97.2067449,25.1881752 C96.3802449,25.2193796 95.1560306,24.8761314 94.4289592,25.3317153 C92.8381021,26.8295255 91.9246021,29.1386496 89.7744592,29.9624453 C86.4622449,31.1669343 82.8331021,31.6162774 79.4090306,32.4213504 C76.1465306,33.2326642 72.9213163,34.8802555 69.8514592,36.2657299 C67.4962449,37.3516423 65.3585306,38.6185401 63.8298163,40.7841241 C61.7045306,43.7422993 61.2322449,47.3308029 60.8531735,50.8631387 C60.3436021,56.2365328 60.0080306,61.6910584 60.2876735,67.0894161 C60.3684592,69.7480292 60.5859592,72.5439416 60.1696021,75.1775912 C60.0701735,76.5568248 58.5166021,77.5366423 57.6403878,78.4790146 Z" id="p2"></path>
                        </g>
                        <g id="p3-link" transform="translate(50.329500, 39.445241)" fill="#000000" fill-rule="nonzero" stroke="#A9D9E9">
                            <path d="M36.3597857,0.296656734 C41.4741429,1.49490491 46.3772143,3.95381002 51.3175714,5.75742316 C57.1714286,8.05406549 62.7394286,9.43953995 68.0526429,12.8969852 C63.4416429,16.8661823 58.0476429,18.3764743 52.6722857,20.9102699 C46.7687143,23.5876056 39.8211429,26.8016567 33.2277857,26.4771312 C26.9389286,26.2399779 21.9177857,23.3816567 16.2441429,21.0475691 C10.6823571,18.7322042 5.15164286,16.4605253 -8.83103114e-15,13.2776786 C2.44221429,11.7611458 4.96521429,10.4380801 7.63735714,9.37089031 C13.6900714,6.91822608 19.7862857,4.57789761 25.8017143,2.03162024 C29.2692857,0.602459654 32.5504286,-0.570825017 36.3597857,0.296656734 Z" id="p3"></path>
                        </g>
                        <g id="p4-link" transform="translate(43.899006, 58.482009)" fill="#000000" fill-rule="nonzero" stroke="#A9D9E9">
                            <path d="M79.4918514,0.0948526969 C79.6658514,3.04054613 79.8522799,5.96751693 79.7714942,8.91945124 C79.5291371,15.9903636 79.6844942,23.0675169 79.5353514,30.1384293 C79.4359228,33.4897797 79.7652799,37.2655096 78.8455657,40.5107651 C78.2489942,42.6326629 76.0677799,44.0930279 74.3215657,45.2288673 C67.7219942,49.2604731 60.9422085,52.9675534 53.7460657,55.8258746 C49.8248514,57.3486483 46.1273514,59.7513855 42.0756371,60.8248162 C39.1114228,61.5674804 36.4889942,60.6375899 33.8354942,59.3831739 C28.1369942,56.5435753 22.3204228,53.9723344 16.6716371,51.026641 C12.3029942,48.7175169 6.51749422,47.0699257 3.06235137,43.5063855 C0.943279936,41.372006 0.937065651,38.6010571 0.756851365,35.7801812 C0.539351365,26.5998527 0.651208508,17.4756921 0.0359942222,8.30160452 C0.0173513651,6.04864832 -0.256077206,2.92821036 1.05513708,0.987297952 C1.72627994,-0.0424465732 2.65842279,0.394414741 3.66513708,0.500509631 C7.05192279,1.24941474 10.2895657,2.98437824 13.4837085,4.31992569 C19.4929228,6.99726146 26.1732799,9.22525416 31.6418514,12.9635388 C34.7676371,15.1790498 36.5573514,18.686422 37.0047799,22.4559111 C37.7629228,29.5393053 37.9990657,36.7412761 37.9742085,43.8683563 C37.8996371,47.2509111 38.1357799,50.4275169 39.9254942,53.3856921 C40.8017085,52.4433199 42.3552799,51.4635023 42.4547085,50.0842688 C42.8710657,47.4506191 42.6535657,44.6547067 42.5727799,41.9960936 C42.2931371,36.5977359 42.6287085,31.1432104 43.1382799,25.7698162 C43.5173514,22.2374804 43.9896371,18.6489768 46.1149228,15.6908016 C47.6436371,13.5252177 49.7813514,12.2583199 52.1365657,11.1724074 C55.2064228,9.78693299 58.4316371,8.13934175 61.6941371,7.32802788 C65.1182085,6.52295489 68.7473514,6.07361182 72.0595657,4.86912277 C74.2097085,4.04532715 75.1232085,1.73620306 76.7140657,0.238392843 C77.4411371,-0.217191099 78.6653514,0.126057076 79.4918514,0.0948526969 Z M70.6613514,10.7230644 C70.3506371,13.8871885 70.1207085,17.0388308 69.6049228,20.1779914 C69.2569228,22.5557651 68.7970657,25.0209111 68.8778514,27.4298892 C68.9399942,29.4456921 70.0274942,30.8249257 71.0342085,32.4662761 C72.3392085,31.2742688 74.0357085,30.1883563 74.2283514,28.2599257 C74.6074228,24.6776629 73.9362799,20.9268965 73.4764228,17.3695972 C73.1843514,14.8607651 72.0222799,12.7887943 70.6613514,10.7230644 Z" id="p4"></path>
                        </g>
                        <g id="p5-link" transform="translate(112.767511, 69.205073)" fill="#000000" fill-rule="nonzero" stroke="#EFF4F7">
                            <path d="M1.79284595,0 C3.15377452,2.06572993 4.31584595,4.13770073 4.60791738,6.64653285 C5.06777452,10.2038321 5.73891738,13.9545985 5.35984595,17.5368613 C5.1672031,19.465292 3.4707031,20.5512044 2.1657031,21.7432117 C1.15898881,20.1018613 0.0714888101,18.7226277 0.00934595299,16.7068248 C-0.0714397613,14.2978467 0.388417382,11.8327007 0.736417382,9.45492701 C1.2522031,6.31576642 1.48213167,3.16412409 1.79284595,0 Z" id="p5"></path>
                        </g>
                        <g id="p6-link" transform="translate(130.985926, 119.086119)" fill="#000000" fill-rule="nonzero" stroke="#EFF4F7">
                            <path d="M1.713931,0.439136592 C3.79571672,-0.359695525 6.52378815,-0.0663743572 8.31350243,1.30037747 C9.26428815,2.07424608 10.2647881,3.39731177 9.674431,4.67669134 C8.98464529,6.12457455 7.12035958,6.30555995 5.72214529,6.35548696 C3.85164529,6.35548696 1.26650243,6.08712929 0.32814529,4.18366214 C-0.436211853,2.66712929 0.179002433,1.08818769 1.713931,0.439136592 Z" id="p6"></path>
                        </g>
                    </g>
                    <g>
                        <g id="p0-link" fill="#EFF4F7" fill-rule="nonzero">
                            <path d="M0,0 L174,0 L174,171 L0,171 L0,0 Z M121.961571,160.945949 C128.088857,161.151898 134.595214,161.38281 140.728714,160.122153 C145.209214,159.011277 149.8575,157.10781 153.374786,154.031058 C158.103857,149.943285 161.925643,144.963066 163.7775,138.909416 C165.666643,133.049234 165.057643,126.577445 165.113571,120.448905 C165.132214,107.137117 165.0825,93.8253285 165.126,80.5135401 C165.399429,73.0057664 164.970643,65.5104745 165.200571,58.0027007 C165.337286,53.4343796 165.026571,48.8785401 165.094929,44.310219 C165.113571,38.9555474 165.529929,33.9566058 163.870714,28.7641971 C162.012643,23.3658394 159.464786,18.3793796 155.0775,14.6161314 C149.099357,9.0430292 141.132643,5.95974279 132.985714,5.97875912 C102.343071,5.95974279 71.6569286,6.02868613 41.0142857,5.95974279 C35.4835714,5.94131387 29.7975,6.8150365 24.8260714,9.34883212 C18.2202857,12.8312409 12.9505714,18.6851825 9.93042857,25.5064599 C7.98535714,30.4055474 7.40121429,35.9536861 7.2645,41.189781 C7.18371429,67.6136496 7.2645,94.0312774 7.20818958,120.448905 C7.19614286,124.998504 7.48821429,129.53562 7.92321429,134.066496 C8.35821429,138.666022 9.75642857,143.446533 12.3788571,147.278431 C17.1017143,153.856314 23.5707857,158.96135 31.6120714,160.621423 C36.6456429,161.775985 41.1634286,160.67135 46.1845714,161.008358 C53.1756429,161.376569 60.117,161.30792 67.1142857,161.301679 C81.6122143,161.314161 96.1163571,161.270474 110.614286,161.326642 C114.411214,161.395292 118.177071,161.039562 121.961571,160.945949 Z" id="p0"></path>
                        </g>
                        <g id="p1-link" transform="translate(7.207830, 5.959458)" fill="#A9D9E9" fill-rule="nonzero">
                            <path d="M33.8064553,0.00028467025 C64.4490982,0.0692280121 95.135241,0.00028467025 125.777884,0.0193010048 C133.924812,0.00028467025 141.891527,3.08357108 147.86967,8.65667327 C152.256955,12.4199214 154.804812,17.4063813 156.662884,22.804739 C158.322098,27.9971477 157.905741,32.9960893 157.887098,38.3507609 C157.818741,42.919082 158.129455,47.4749214 157.992741,52.0432426 C157.762812,59.5510163 158.191598,67.0463083 157.91817,74.554082 C157.87467,87.8658703 157.924384,101.177659 157.905741,114.489447 C157.849812,120.617987 158.458812,127.089775 156.56967,132.949958 C154.717812,139.003608 150.896027,143.983827 146.166955,148.0716 C142.64967,151.148352 138.001384,153.051819 133.520884,154.162695 C127.387384,155.423352 120.881027,155.19244 114.753741,154.986491 C110.969241,155.080104 107.203384,155.435834 103.406455,155.367184 C88.9085267,155.311016 74.4043839,155.354702 59.9064553,155.342221 C52.9091696,155.348462 45.9678124,155.417111 38.976741,155.0489 C33.9555982,154.711892 29.4378124,155.816527 24.404241,154.661965 C16.3629553,153.001892 9.89388387,147.896856 5.17102672,141.318973 C2.54859815,137.487075 1.15038387,132.706564 0.715383866,128.107038 C0.280383866,123.576162 -0.0116875622,119.039046 0.000359158101,114.489447 C0.0566695806,88.0718193 -0.0241161337,61.6541915 0.0566695806,35.2303229 C0.193383866,29.994228 0.777526723,24.4460893 2.72259815,19.5470017 C5.74274101,12.7257244 11.0124553,6.87178276 17.618241,3.389374 C22.5896696,0.855578377 28.275741,-0.0181442507 33.8064553,0.00028467025 Z M111.298598,112.511089 C112.777598,110.975834 114.219312,109.546673 116.170598,108.616783 C121.29117,106.257732 126.417955,106.251491 131.64417,104.803608 C134.241741,104.03598 136.665312,102.744119 137.38617,99.9107609 C137.901955,97.8387901 136.193027,96.078863 134.726455,94.8868557 C131.234027,92.0534981 126.710027,91.454374 123.155455,89.0329141 C121.471384,87.93452 121.676455,85.7065273 121.539741,83.9466003 C121.496241,73.7365273 121.757241,63.5202134 121.732384,53.3101404 C121.651598,49.9213448 121.229027,46.6636076 118.805455,44.1110893 C116.41917,41.6397025 112.553884,40.3478412 109.41567,39.1121477 C102.207098,36.4410528 95.2533124,33.1833156 87.9390982,30.7743375 C84.2291696,29.6010528 80.1898839,27.4541915 76.2748839,27.429228 C73.0683124,27.7038266 69.8679553,29.2515638 66.8726696,30.3874032 C62.0006696,32.3532791 57.0913839,34.219301 52.244241,36.2475857 C47.2044553,38.34452 41.499741,39.8111258 36.8265982,42.6132791 C34.6329553,43.9113813 33.0731696,45.7898849 32.3895982,48.2799944 C31.146741,52.5549944 31.6376696,57.5913813 31.9235267,61.9974397 C32.5014553,68.6626952 31.9173124,75.309228 32.6133124,81.9682426 C32.7438124,83.8779506 32.9550982,86.5303229 31.8240982,88.1591915 C29.3943124,90.0314543 26.013741,90.5744105 23.3913124,92.2282426 C21.5208124,93.3578412 19.6751696,94.9991915 19.0413124,97.1710163 C18.6373839,99.149374 20.184741,100.672148 21.7569553,101.558352 C25.9018839,103.848754 31.4885267,103.411892 35.5526696,105.240469 C37.4045267,106.082987 39.237741,107.817951 39.1010267,110.02098 C38.7343839,113.509629 35.5340267,116.64879 34.9001696,120.062549 C35.7639553,122.721162 38.4671696,124.312586 41.2076696,124.019265 C45.632241,123.651053 49.8020267,122.440323 54.3198124,122.733644 C59.3285267,122.895907 62.901741,125.654374 67.7426696,126.503133 C72.2728839,127.26452 76.7720267,126.602987 81.0723124,125.073973 C85.2545267,123.663535 88.9458124,121.460505 93.4325267,121.379374 C100.137741,121.042367 107.364955,124.456126 113.840241,123.039447 C115.443527,122.677476 117.543955,121.185907 116.59317,119.301162 C115.362741,116.767367 113.063455,114.682914 111.298598,112.511089 Z M125.492027,113.565797 C123.957098,114.214848 123.341884,115.79379 124.106241,117.310323 C125.044598,119.21379 127.629741,119.482148 129.500241,119.482148 C130.898455,119.432221 132.762741,119.251235 133.452527,117.803352 C134.042884,116.523973 133.042384,115.200907 132.091598,114.427038 C130.301884,113.060286 127.573812,112.766965 125.492027,113.565797 Z" id="p1"></path>
                        </g>
                        <g id="p2-link" transform="translate(26.184112, 33.388686)" fill="#EFF4F7" fill-rule="nonzero">
                            <path d="M57.2986021,-7.10542736e-15 C61.2136021,0.0249635036 65.2528878,2.17182482 68.9628163,3.34510949 C76.2770306,5.75408759 83.2308163,9.01182482 90.4393878,11.6829197 C93.5776021,12.9186131 97.4428878,14.2104745 99.8291735,16.6818613 C102.252745,19.2343796 102.675316,22.4921168 102.756102,25.8809124 C102.780959,36.0909854 102.519959,46.3072993 102.563459,56.5173723 C102.700173,58.2772993 102.495102,60.505292 104.179173,61.6036861 C107.733745,64.025146 112.257745,64.6242701 115.750173,67.4576277 C117.216745,68.649635 118.925673,70.409562 118.409888,72.4815328 C117.689031,75.3148905 115.265459,76.6067518 112.667888,77.3743796 C107.441673,78.8222628 102.314888,78.8285036 97.1943163,81.1875547 C95.2430306,82.1174453 93.8013163,83.5466058 92.3223163,85.0818613 C94.0871735,87.2536861 96.3864592,89.3381387 97.6168878,91.8719343 C98.5676735,93.7566788 96.4672449,95.2482482 94.8639592,95.610219 C88.3886735,97.0268978 81.1614592,93.6131387 74.4562449,93.950146 C69.9695306,94.0312774 66.2782449,96.2343066 62.0960306,97.6447445 C57.7957449,99.1737591 53.2966021,99.835292 48.7663878,99.0739051 C43.9254592,98.225146 40.3522449,95.4666788 35.3435306,95.3044161 C30.8257449,95.0110949 26.6559592,96.2218248 22.2313878,96.5900365 C19.4908878,96.8833577 16.7876735,95.2919343 15.9238878,92.6333212 C16.5577449,89.219562 19.7581021,86.0804015 20.1247449,82.5917518 C20.2614592,80.3887226 18.4282449,78.6537591 16.5763878,77.8112409 C12.5122449,75.9826642 6.92560206,76.4195255 2.78067349,74.1291241 C1.20845921,73.2429197 -0.338897936,71.720146 0.0650306355,69.7417883 C0.698887778,67.5699635 2.54453064,65.9286131 4.41503064,64.7990146 C7.03745921,63.1451825 10.4180306,62.6022263 12.8478163,60.7299635 C13.9788163,59.1010949 13.7675306,56.4487226 13.6370306,54.5390146 C12.9410306,47.88 13.5251735,41.2334672 12.9472449,34.5682117 C12.6613878,30.1621533 12.1704592,25.1257664 13.4133163,20.8507664 C14.0968878,18.3606569 15.6566735,16.4821533 17.8503163,15.1840511 C22.5234592,12.3818978 28.2281735,10.915292 33.2679592,8.81835766 C38.1151021,6.79007299 43.0243878,4.92405109 47.8963878,2.95817518 C50.8916735,1.82233577 54.0920306,0.27459854 57.2986021,-7.10542736e-15 Z M24.1453878,19.3342336 C29.2970306,22.5170803 34.8277449,24.7887591 40.3895306,27.1041241 C46.0631735,29.4382117 51.0843163,32.2965328 57.3731735,32.5336861 C63.9665306,32.8582117 70.9141021,29.6441606 76.8176735,26.9668248 C82.1930306,24.4330292 87.5870306,22.9227372 92.1980306,18.9535401 C86.8848163,15.4960949 81.3168163,14.1106204 75.4629592,11.8139781 C70.5226021,10.010365 65.6195306,7.55145985 60.5051735,6.35321168 C56.6958163,5.48572993 53.4146735,6.6590146 49.9471021,8.08817518 C43.9316735,10.6344526 37.8354592,12.974781 31.7827449,15.4274453 C29.1106021,16.494635 26.5876021,17.8177007 24.1453878,19.3342336 Z M57.6403878,78.4790146 C55.8506735,75.5208394 55.6145306,72.3442336 55.6891021,68.9616788 C55.7139592,61.8345985 55.4778163,54.6326277 54.7196735,47.5492336 C54.2722449,43.7797445 52.4825306,40.2723723 49.3567449,38.0568613 C43.8881735,34.3185766 37.2078163,32.0905839 31.1986021,29.4132482 C28.0044592,28.0777007 24.7668163,26.3427372 21.3800306,25.5938321 C20.3733163,25.4877372 19.4411735,25.0508759 18.7700306,26.0806204 C17.4588163,28.0215328 17.7322449,31.1419708 17.7508878,33.394927 C18.3661021,42.5690146 18.2542449,51.6931752 18.4717449,60.8735036 C18.6519592,63.6943796 18.6581735,66.4653285 20.7772449,68.599708 C24.2323878,72.1632482 30.0178878,73.8108394 34.3865306,76.1199635 C40.0353163,79.0656569 45.8518878,81.6368978 51.5503878,84.4764964 C54.2038878,85.7309124 56.8263163,86.6608029 59.7905306,85.9181387 C63.8422449,84.844708 67.5397449,82.4419708 71.4609592,80.9191971 C78.6571021,78.0608759 85.4368878,74.3537956 92.0364592,70.3221898 C93.7826735,69.1863504 95.9638878,67.7259854 96.5604592,65.6040876 C97.4801735,62.3588321 97.1508163,58.5831022 97.2502449,55.2317518 C97.3993878,48.1608394 97.2440306,41.0836861 97.4863878,34.0127737 C97.5671735,31.0608394 97.3807449,28.1338686 97.2067449,25.1881752 C96.3802449,25.2193796 95.1560306,24.8761314 94.4289592,25.3317153 C92.8381021,26.8295255 91.9246021,29.1386496 89.7744592,29.9624453 C86.4622449,31.1669343 82.8331021,31.6162774 79.4090306,32.4213504 C76.1465306,33.2326642 72.9213163,34.8802555 69.8514592,36.2657299 C67.4962449,37.3516423 65.3585306,38.6185401 63.8298163,40.7841241 C61.7045306,43.7422993 61.2322449,47.3308029 60.8531735,50.8631387 C60.3436021,56.2365328 60.0080306,61.6910584 60.2876735,67.0894161 C60.3684592,69.7480292 60.5859592,72.5439416 60.1696021,75.1775912 C60.0701735,76.5568248 58.5166021,77.5366423 57.6403878,78.4790146 Z" id="p2"></path>
                        </g>
                        <g id="p3-link" transform="translate(50.329500, 39.445241)" fill="#A9D9E9" fill-rule="nonzero">
                            <path d="M36.3597857,0.296656734 C41.4741429,1.49490491 46.3772143,3.95381002 51.3175714,5.75742316 C57.1714286,8.05406549 62.7394286,9.43953995 68.0526429,12.8969852 C63.4416429,16.8661823 58.0476429,18.3764743 52.6722857,20.9102699 C46.7687143,23.5876056 39.8211429,26.8016567 33.2277857,26.4771312 C26.9389286,26.2399779 21.9177857,23.3816567 16.2441429,21.0475691 C10.6823571,18.7322042 5.15164286,16.4605253 -8.83103114e-15,13.2776786 C2.44221429,11.7611458 4.96521429,10.4380801 7.63735714,9.37089031 C13.6900714,6.91822608 19.7862857,4.57789761 25.8017143,2.03162024 C29.2692857,0.602459654 32.5504286,-0.570825017 36.3597857,0.296656734 Z" id="p3"></path>
                        </g>
                        <g id="p4-link" transform="translate(43.899006, 58.482009)" fill="#A9D9E9" fill-rule="nonzero">
                            <path d="M79.4918514,0.0948526969 C79.6658514,3.04054613 79.8522799,5.96751693 79.7714942,8.91945124 C79.5291371,15.9903636 79.6844942,23.0675169 79.5353514,30.1384293 C79.4359228,33.4897797 79.7652799,37.2655096 78.8455657,40.5107651 C78.2489942,42.6326629 76.0677799,44.0930279 74.3215657,45.2288673 C67.7219942,49.2604731 60.9422085,52.9675534 53.7460657,55.8258746 C49.8248514,57.3486483 46.1273514,59.7513855 42.0756371,60.8248162 C39.1114228,61.5674804 36.4889942,60.6375899 33.8354942,59.3831739 C28.1369942,56.5435753 22.3204228,53.9723344 16.6716371,51.026641 C12.3029942,48.7175169 6.51749422,47.0699257 3.06235137,43.5063855 C0.943279936,41.372006 0.937065651,38.6010571 0.756851365,35.7801812 C0.539351365,26.5998527 0.651208508,17.4756921 0.0359942222,8.30160452 C0.0173513651,6.04864832 -0.256077206,2.92821036 1.05513708,0.987297952 C1.72627994,-0.0424465732 2.65842279,0.394414741 3.66513708,0.500509631 C7.05192279,1.24941474 10.2895657,2.98437824 13.4837085,4.31992569 C19.4929228,6.99726146 26.1732799,9.22525416 31.6418514,12.9635388 C34.7676371,15.1790498 36.5573514,18.686422 37.0047799,22.4559111 C37.7629228,29.5393053 37.9990657,36.7412761 37.9742085,43.8683563 C37.8996371,47.2509111 38.1357799,50.4275169 39.9254942,53.3856921 C40.8017085,52.4433199 42.3552799,51.4635023 42.4547085,50.0842688 C42.8710657,47.4506191 42.6535657,44.6547067 42.5727799,41.9960936 C42.2931371,36.5977359 42.6287085,31.1432104 43.1382799,25.7698162 C43.5173514,22.2374804 43.9896371,18.6489768 46.1149228,15.6908016 C47.6436371,13.5252177 49.7813514,12.2583199 52.1365657,11.1724074 C55.2064228,9.78693299 58.4316371,8.13934175 61.6941371,7.32802788 C65.1182085,6.52295489 68.7473514,6.07361182 72.0595657,4.86912277 C74.2097085,4.04532715 75.1232085,1.73620306 76.7140657,0.238392843 C77.4411371,-0.217191099 78.6653514,0.126057076 79.4918514,0.0948526969 Z M70.6613514,10.7230644 C70.3506371,13.8871885 70.1207085,17.0388308 69.6049228,20.1779914 C69.2569228,22.5557651 68.7970657,25.0209111 68.8778514,27.4298892 C68.9399942,29.4456921 70.0274942,30.8249257 71.0342085,32.4662761 C72.3392085,31.2742688 74.0357085,30.1883563 74.2283514,28.2599257 C74.6074228,24.6776629 73.9362799,20.9268965 73.4764228,17.3695972 C73.1843514,14.8607651 72.0222799,12.7887943 70.6613514,10.7230644 Z" id="p4"></path>
                        </g>
                        <g id="p5-link" transform="translate(112.767511, 69.205073)" fill="#EFF4F7" fill-rule="nonzero">
                            <path d="M1.79284595,0 C3.15377452,2.06572993 4.31584595,4.13770073 4.60791738,6.64653285 C5.06777452,10.2038321 5.73891738,13.9545985 5.35984595,17.5368613 C5.1672031,19.465292 3.4707031,20.5512044 2.1657031,21.7432117 C1.15898881,20.1018613 0.0714888101,18.7226277 0.00934595299,16.7068248 C-0.0714397613,14.2978467 0.388417382,11.8327007 0.736417382,9.45492701 C1.2522031,6.31576642 1.48213167,3.16412409 1.79284595,0 Z" id="p5"></path>
                        </g>
                        <g id="p6-link" transform="translate(130.985926, 119.086119)" fill="#EFF4F7" fill-rule="nonzero">
                            <path d="M1.713931,0.439136592 C3.79571672,-0.359695525 6.52378815,-0.0663743572 8.31350243,1.30037747 C9.26428815,2.07424608 10.2647881,3.39731177 9.674431,4.67669134 C8.98464529,6.12457455 7.12035958,6.30555995 5.72214529,6.35548696 C3.85164529,6.35548696 1.26650243,6.08712929 0.32814529,4.18366214 C-0.436211853,2.66712929 0.179002433,1.08818769 1.713931,0.439136592 Z" id="p6"></path>
                        </g>
                    </g>
                </g>
            </g>
        </g>
    </g>
</svg>